Coordinates
version=1
nRows=6
nColumns=63
inDegrees=yes

Units are S.I. units (second, meters, Newtons, ...)
If the header above contains a line with 'inDegrees', this indicates whether rotational values are in degrees (yes) or radians (no).

endheader
time	pelvis_tilt	pelvis_list	pelvis_rotation	pelvis_tx	pelvis_ty	pelvis_tz	hip_flexion_r	hip_adduction_r	hip_rotation_r	knee_angle_r	knee_angle_r_beta	ankle_angle_r	subtalar_angle_r	mtp_angle_r	hip_flexion_l	hip_adduction_l	hip_rotation_l	knee_angle_l	knee_angle_l_beta	ankle_angle_l	subtalar_angle_l	mtp_angle_l	L5_S1_Flex_Ext	L5_S1_Lat_Bending	L5_S1_axial_rotation	L4_L5_Flex_Ext	L4_L5_Lat_Bending	L4_L5_axial_rotation	L3_L4_Flex_Ext	L3_L4_Lat_Bending	L3_L4_axial_rotation	L2_L3_Flex_Ext	L2_L3_Lat_Bending	L2_L3_axial_rotation	L1_L2_Flex_Ext	L1_L2_Lat_Bending	L1_L2_axial_rotation	L1_T12_Flex_Ext	L1_T12_Lat_Bending	L1_T12_axial_rotation	Abs_r3	Abs_r2	Abs_r1	Abs_t1	Abs_t2	neck_flexion	neck_bending	neck_rotation	arm_flex_r	arm_add_r	arm_rot_r	elbow_flex_r	pro_sup_r	wrist_flex_r	wrist_dev_r	arm_flex_l	arm_add_l	arm_rot_l	elbow_flex_l	pro_sup_l	wrist_flex_l	wrist_dev_l
      8.38333333	     -2.02221175	      1.09847865	     88.79718312	      0.03171014	      0.87546213	      0.67262314	      1.90097237	     -3.05938149	     11.26685703	     18.83489086	      0.32873086	     37.57805512	     -7.26075442	      0.00000000	     -4.89947567	      5.13786046	      0.88829478	      4.39855403	      0.07676925	     34.06712725	     -9.99146236	      0.00000000	     -0.00406769	     -0.55093955	      0.11572551	     -0.00755411	     -0.73274961	      0.12295836	     -0.00668281	     -1.33955443	      0.12295836	     -0.00464897	     -1.33955443	      0.10125982	     -0.00377726	     -1.12347594	      0.09402698	     -0.00232428	     -0.85340537	      0.08679413	     -0.02905512	     -6.23233843	      0.64363058	      0.00000000	      0.00000000	     18.96354055	      3.82361641	     -7.97093451	     51.62843167	    -16.21433957	      6.82529570	    103.30987343	     88.65701550	     17.24035702	      1.87856948	     50.23445323	      6.93365126	     29.72716848	     95.77886591	     87.40631451	    -31.55166256	    -14.52041218
      8.40000000	     -1.92891385	      1.21339866	     88.69660220	      0.03188488	      0.87527785	      0.67356552	      1.96398629	     -2.95296984	     11.18478845	     18.95215129	      0.33077744	     37.78769244	     -7.23048471	      0.00000000	     -4.91613522	      5.03421207	      0.83662156	      4.49564750	      0.07846385	     34.13649902	    -10.00856716	      0.00000000	     -0.02765180	     -0.53980869	      0.10816287	     -0.05135216	     -0.71794555	      0.11492305	     -0.04542914	     -1.31249084	      0.11492305	     -0.03160324	     -1.31249084	      0.09464252	     -0.02567746	     -1.10077787	      0.08788234	     -0.01580024	     -0.83616366	      0.08112216	     -0.19751405	     -6.10642382	      0.60156946	      0.00000000	      0.00000000	     18.76501428	      3.88860503	     -7.40990694	     51.35396258	    -15.64767234	      6.47933338	    102.33778068	     88.68948518	     16.17640030	      1.83195390	     51.36640323	      6.83811859	     29.50176654	     94.30973618	     87.43089705	    -31.45246318	    -14.14923462
      8.41666667	     -1.92742636	      1.27781057	     88.57619560	      0.03205334	      0.87504823	      0.67445263	      2.10794094	     -3.00367176	     10.80904153	     19.10136359	      0.33338169	     38.18983390	     -6.70233177	      0.00000000	     -4.85613491	      5.01670431	      0.20261362	      4.64894429	      0.08113938	     34.34888969	     -9.32646819	      0.00000000	     -0.04068663	     -0.53319482	      0.05719865	     -0.07555914	     -0.70914911	      0.06077357	     -0.06684406	     -1.29640988	      0.06077357	     -0.04650075	     -1.29640988	      0.05004882	     -0.03778160	     -1.08729087	      0.04647390	     -0.02324834	     -0.82591877	      0.04289899	     -0.29062053	     -6.03160641	      0.31812174	      0.00000000	      0.00000000	     18.66590148	      4.35721772	     -5.97291658	     51.28867836	    -15.25309332	      7.85522366	    101.51172985	     88.67778729	     10.04292911	      0.74279501	     51.91655016	      6.59607895	     28.81972051	     93.30696195	     87.63660209	    -30.63907550	    -14.10553974
      8.43333333	     -1.91317078	      1.30745718	     88.56650663	      0.03222587	      0.87499683	      0.67508493	      2.21994384	     -3.07250231	     10.11751194	     19.16793541	      0.33454358	     38.54007195	     -5.89450277	      0.00000000	     -4.74193998	      4.91498951	     -1.22851760	      4.88984778	      0.08534394	     34.80251503	     -7.35609036	      0.00000000	     -0.05150948	     -0.53380292	      0.06251995	     -0.09565825	     -0.70995789	      0.06642745	     -0.08462492	     -1.29788843	      0.06642745	     -0.05887018	     -1.29788843	      0.05470496	     -0.04783170	     -1.08853092	      0.05079746	     -0.02943251	     -0.82686073	      0.04688996	     -0.36792704	     -6.03848543	      0.34771721	      0.00000000	      0.00000000	     18.69342272	      4.66633702	     -5.50269684	     50.94968684	    -14.64264304	      7.82492619	    101.47589376	     88.60306562	      7.70103225	      1.46068645	     51.84724922	      6.67532507	     28.32329278	     92.53532842	     87.83374099	    -29.34620156	    -14.57267156
      8.45000000	     -1.86358918	      1.24838995	     88.61448278	      0.03253102	      0.87500952	      0.67520619	      2.30490003	     -2.96904079	     10.17810386	     19.13594006	      0.33398516	     38.57079564	     -6.17474931	      0.00000000	     -4.61999409	      4.79595808	     -1.68113664	      5.02720257	      0.08774124	     34.94183837	     -6.67498193	      0.00000000	     -0.05065048	     -0.53783818	      0.14683658	     -0.09406301	     -0.71532478	      0.15601386	     -0.08321368	     -1.30769975	      0.15601386	     -0.05788844	     -1.30769975	      0.12848200	     -0.04703404	     -1.09675961	      0.11930472	     -0.02894169	     -0.83311134	      0.11012743	     -0.36179135	     -6.08413304	      0.81666099	      0.00000000	      0.00000000	     18.90756687	      4.79419258	     -6.07762279	     50.08005592	    -14.30680230	      7.20970365	    102.96207346	     88.53110056	      5.58580762	      2.91957107	     50.76502558	      6.88160316	     28.21117020	     92.69528127	     87.94364961	    -27.86795687	    -15.07480467
      8.46666667	     -1.79960382	      1.10997226	     88.75172953	      0.03274866	      0.87505356	      0.67488572	      2.38685113	     -2.86764287	     10.07131048	     19.03784626	      0.33227310	     38.56153125	     -6.30718402	      0.00000000	     -4.46336909	      4.64050830	     -2.26554291	      5.12481648	      0.08944492	     35.10319084	     -5.65517801	      0.00000000	     -0.04220115	     -0.54552561	      0.31479887	     -0.07837176	     -0.72554906	      0.33447380	     -0.06933227	     -1.32639097	      0.33447380	     -0.04823170	     -1.32639097	      0.27544901	     -0.03918799	     -1.11243582	      0.25577408	     -0.02411374	     -0.84501917	      0.23609915	     -0.30143862	     -6.17109479	      1.75081687	      0.00000000	      0.00000000	     19.44625720	      4.61629884	     -7.83918905	     48.48201837	    -14.43381839	      5.93534574	    106.16350287	     88.49637470	      3.91161386	      4.12387055	     48.36378293	      7.07666466	     28.55106022	     94.18611831	     88.01029051	    -26.04224128	    -15.09453044
